<mxfile host="app.diagrams.net" modified="2022-05-01T07:46:26.765Z" agent="5.0 (Windows NT 10.0; Win64; x64) AppleWebKit/537.36 (KHTML, like Gecko) Chrome/101.0.4951.41 Safari/537.36 Edg/101.0.1210.32" etag="mzn39Vcv7CHemvVnwmAP" version="17.4.6" type="github">
  <diagram name="Page-1" id="b98fa263-6416-c6ec-5b7d-78bf54ef71d0">
    <mxGraphModel dx="860" dy="488" grid="1" gridSize="10" guides="1" tooltips="1" connect="1" arrows="1" fold="1" page="1" pageScale="1.5" pageWidth="1169" pageHeight="826" background="none" math="0" shadow="0">
      <root>
        <mxCell id="0" style=";html=1;" />
        <mxCell id="1" style=";html=1;" parent="0" />
        <mxCell id="303ed1de8c2c98b4-4" value="弓网燃弧识别监控系统" style="whiteSpace=wrap;html=1;rounded=1;shadow=1;strokeWidth=1;fontSize=16;align=center;fillColor=#f5f5f5;strokeColor=#666666;" parent="1" vertex="1">
          <mxGeometry x="500" y="240" width="510" height="40" as="geometry" />
        </mxCell>
        <mxCell id="303ed1de8c2c98b4-5" value="图形界面模块" style="whiteSpace=wrap;html=1;rounded=1;shadow=1;strokeWidth=1;fontSize=16;align=center;fillColor=#f5f5f5;strokeColor=#666666;" parent="1" vertex="1">
          <mxGeometry x="440" y="415" width="275" height="40" as="geometry" />
        </mxCell>
        <mxCell id="303ed1de8c2c98b4-6" value="界面控制模块" style="whiteSpace=wrap;html=1;rounded=1;shadow=1;strokeWidth=1;fontSize=16;align=center;fillColor=#f5f5f5;strokeColor=#666666;" parent="1" vertex="1">
          <mxGeometry x="755" y="415" width="275" height="40" as="geometry" />
        </mxCell>
        <mxCell id="303ed1de8c2c98b4-7" value="燃弧检测模块" style="whiteSpace=wrap;html=1;rounded=1;shadow=1;strokeWidth=1;fontSize=16;align=center;fillColor=#f5f5f5;strokeColor=#666666;" parent="1" vertex="1">
          <mxGeometry x="118" y="415" width="275" height="40" as="geometry" />
        </mxCell>
        <mxCell id="303ed1de8c2c98b4-8" value="数据库存储模块" style="whiteSpace=wrap;html=1;rounded=1;shadow=1;strokeWidth=1;fontSize=16;align=center;fillColor=#f5f5f5;strokeColor=#666666;" parent="1" vertex="1">
          <mxGeometry x="1057" y="415" width="275" height="40" as="geometry" />
        </mxCell>
        <mxCell id="303ed1de8c2c98b4-82" style="edgeStyle=orthogonalEdgeStyle;html=1;startSize=6;endFill=0;endSize=6;strokeWidth=1;fontSize=16;rounded=0;endArrow=none;exitX=0.5;exitY=1;" parent="1" source="303ed1de8c2c98b4-4" target="303ed1de8c2c98b4-7" edge="1">
          <mxGeometry relative="1" as="geometry">
            <Array as="points">
              <mxPoint x="755" y="390" />
              <mxPoint x="260" y="390" />
            </Array>
          </mxGeometry>
        </mxCell>
        <mxCell id="303ed1de8c2c98b4-83" style="edgeStyle=orthogonalEdgeStyle;html=1;startSize=6;endFill=0;endSize=6;strokeWidth=1;fontSize=16;rounded=0;endArrow=none;" parent="1" edge="1">
          <mxGeometry relative="1" as="geometry">
            <Array as="points">
              <mxPoint x="884" y="390" />
              <mxPoint x="1194" y="390" />
            </Array>
            <mxPoint x="750" y="390" as="sourcePoint" />
            <mxPoint x="1194" y="415" as="targetPoint" />
          </mxGeometry>
        </mxCell>
        <mxCell id="EO1qfQUD-K-7eELo_gXp-2" value="" style="endArrow=none;html=1;rounded=0;exitX=0.436;exitY=0.025;exitDx=0;exitDy=0;exitPerimeter=0;" edge="1" parent="1" source="303ed1de8c2c98b4-5">
          <mxGeometry width="50" height="50" relative="1" as="geometry">
            <mxPoint x="560" y="410" as="sourcePoint" />
            <mxPoint x="560" y="389" as="targetPoint" />
          </mxGeometry>
        </mxCell>
        <mxCell id="EO1qfQUD-K-7eELo_gXp-3" value="" style="endArrow=none;html=1;rounded=0;exitX=0.5;exitY=0;exitDx=0;exitDy=0;" edge="1" parent="1" source="303ed1de8c2c98b4-6">
          <mxGeometry width="50" height="50" relative="1" as="geometry">
            <mxPoint x="894.9000000000001" y="418" as="sourcePoint" />
            <mxPoint x="893" y="390" as="targetPoint" />
          </mxGeometry>
        </mxCell>
        <mxCell id="EO1qfQUD-K-7eELo_gXp-4" value="加载模型" style="whiteSpace=wrap;html=1;rounded=1;shadow=1;strokeWidth=1;fontSize=16;align=center;fillColor=#f5f5f5;strokeColor=#666666;" vertex="1" parent="1">
          <mxGeometry x="150" y="480" width="72" height="60" as="geometry" />
        </mxCell>
        <mxCell id="EO1qfQUD-K-7eELo_gXp-5" value="燃弧检测" style="whiteSpace=wrap;html=1;rounded=1;shadow=1;strokeWidth=1;fontSize=16;align=center;fillColor=#f5f5f5;strokeColor=#666666;" vertex="1" parent="1">
          <mxGeometry x="270" y="480" width="70" height="60" as="geometry" />
        </mxCell>
        <mxCell id="EO1qfQUD-K-7eELo_gXp-7" value="" style="endArrow=none;html=1;rounded=0;entryX=0.5;entryY=0;entryDx=0;entryDy=0;exitX=0.25;exitY=1;exitDx=0;exitDy=0;" edge="1" parent="1" source="303ed1de8c2c98b4-7" target="EO1qfQUD-K-7eELo_gXp-4">
          <mxGeometry width="50" height="50" relative="1" as="geometry">
            <mxPoint x="80" y="650" as="sourcePoint" />
            <mxPoint x="130" y="600" as="targetPoint" />
          </mxGeometry>
        </mxCell>
        <mxCell id="EO1qfQUD-K-7eELo_gXp-8" value="" style="endArrow=none;html=1;rounded=0;entryX=0.68;entryY=1.125;entryDx=0;entryDy=0;entryPerimeter=0;exitX=0.5;exitY=0;exitDx=0;exitDy=0;" edge="1" parent="1" source="EO1qfQUD-K-7eELo_gXp-5" target="303ed1de8c2c98b4-7">
          <mxGeometry width="50" height="50" relative="1" as="geometry">
            <mxPoint x="310" y="660" as="sourcePoint" />
            <mxPoint x="360" y="610" as="targetPoint" />
          </mxGeometry>
        </mxCell>
        <mxCell id="EO1qfQUD-K-7eELo_gXp-9" value="视频分析" style="whiteSpace=wrap;html=1;rounded=1;shadow=1;strokeWidth=1;fontSize=16;align=center;fillColor=#f5f5f5;strokeColor=#666666;" vertex="1" parent="1">
          <mxGeometry x="760" y="480" width="72" height="60" as="geometry" />
        </mxCell>
        <mxCell id="EO1qfQUD-K-7eELo_gXp-10" value="数据统计" style="whiteSpace=wrap;html=1;rounded=1;shadow=1;strokeWidth=1;fontSize=16;align=center;fillColor=#f5f5f5;strokeColor=#666666;" vertex="1" parent="1">
          <mxGeometry x="853" y="480" width="72" height="60" as="geometry" />
        </mxCell>
        <mxCell id="EO1qfQUD-K-7eELo_gXp-11" value="错误处理" style="whiteSpace=wrap;html=1;rounded=1;shadow=1;strokeWidth=1;fontSize=16;align=center;fillColor=#f5f5f5;strokeColor=#666666;" vertex="1" parent="1">
          <mxGeometry x="947" y="480" width="72" height="60" as="geometry" />
        </mxCell>
        <mxCell id="EO1qfQUD-K-7eELo_gXp-12" value="查询数据库" style="whiteSpace=wrap;html=1;rounded=1;shadow=1;strokeWidth=1;fontSize=16;align=center;fillColor=#f5f5f5;strokeColor=#666666;" vertex="1" parent="1">
          <mxGeometry x="1110" y="480" width="72" height="60" as="geometry" />
        </mxCell>
        <mxCell id="EO1qfQUD-K-7eELo_gXp-13" value="更新数据库" style="whiteSpace=wrap;html=1;rounded=1;shadow=1;strokeWidth=1;fontSize=16;align=center;fillColor=#f5f5f5;strokeColor=#666666;" vertex="1" parent="1">
          <mxGeometry x="1220" y="480" width="72" height="60" as="geometry" />
        </mxCell>
        <mxCell id="EO1qfQUD-K-7eELo_gXp-14" value="" style="endArrow=none;html=1;rounded=0;startSize=23;" edge="1" parent="1">
          <mxGeometry width="50" height="50" relative="1" as="geometry">
            <mxPoint x="800" y="480" as="sourcePoint" />
            <mxPoint x="800" y="455" as="targetPoint" />
          </mxGeometry>
        </mxCell>
        <mxCell id="EO1qfQUD-K-7eELo_gXp-15" value="" style="endArrow=none;html=1;rounded=0;startSize=23;" edge="1" parent="1">
          <mxGeometry width="50" height="50" relative="1" as="geometry">
            <mxPoint x="890" y="481" as="sourcePoint" />
            <mxPoint x="890" y="456" as="targetPoint" />
          </mxGeometry>
        </mxCell>
        <mxCell id="EO1qfQUD-K-7eELo_gXp-16" value="" style="endArrow=none;html=1;rounded=0;startSize=23;" edge="1" parent="1">
          <mxGeometry width="50" height="50" relative="1" as="geometry">
            <mxPoint x="984" y="481" as="sourcePoint" />
            <mxPoint x="984" y="456" as="targetPoint" />
          </mxGeometry>
        </mxCell>
        <mxCell id="EO1qfQUD-K-7eELo_gXp-17" value="" style="endArrow=none;html=1;rounded=0;startSize=23;" edge="1" parent="1">
          <mxGeometry width="50" height="50" relative="1" as="geometry">
            <mxPoint x="1148" y="481" as="sourcePoint" />
            <mxPoint x="1148" y="456" as="targetPoint" />
          </mxGeometry>
        </mxCell>
        <mxCell id="EO1qfQUD-K-7eELo_gXp-18" value="" style="endArrow=none;html=1;rounded=0;startSize=23;" edge="1" parent="1">
          <mxGeometry width="50" height="50" relative="1" as="geometry">
            <mxPoint x="1259" y="481" as="sourcePoint" />
            <mxPoint x="1259" y="456" as="targetPoint" />
          </mxGeometry>
        </mxCell>
      </root>
    </mxGraphModel>
  </diagram>
</mxfile>
